<svg width="512" height="512" viewBox="0 0 512 512" fill="none" xmlns="http://www.w3.org/2000/svg">
<path d="M187.81 247.05L134.576 125.517H249.271L274.389 172.738L274.909 173.715L275.838 173.114L352.334 123.672L266.381 216.237L233.51 152.488L233.226 151.937H232.607H177.733H176.133L176.814 153.386L224.267 254.351L18.1957 456.606L187.668 248.099L188.058 247.618L187.81 247.05Z" fill="#DC143C" stroke="#DC143C" stroke-width="2.03235"/>
<path d="M324.234 265.591L378.506 386.638L263.957 387.68L238.443 340.688L237.915 339.716L236.992 340.325L161.039 390.464L246.045 297.117L279.453 360.564L279.741 361.112L280.36 361.106L335.163 360.608L336.76 360.593L336.068 359.153L287.757 258.622L491.732 54.4962L324.367 264.543L323.981 265.027L324.234 265.591Z" fill="#003893" stroke="#003893" stroke-width="2.02982"/>
</svg>
