<?xml version="1.0" standalone="no"?>
<!DOCTYPE svg PUBLIC "-//W3C//DTD SVG 20010904//EN"
 "http://www.w3.org/TR/2001/REC-SVG-20010904/DTD/svg10.dtd">
<svg version="1.0" xmlns="http://www.w3.org/2000/svg"
 width="700.000000pt" height="700.000000pt" viewBox="0 0 700.000000 700.000000"
 preserveAspectRatio="xMidYMid meet">
<metadata>
Created by potrace 1.11, written by Peter Selinger 2001-2013
</metadata>
<g transform="translate(0.000000,700.000000) scale(0.100000,-0.100000)"
fill="#000000" stroke="none">
<path d="M5320 4872 c-762 -763 -1389 -1392 -1393 -1399 -4 -6 27 -82 69 -170
42 -87 100 -207 129 -268 29 -60 87 -182 130 -270 42 -88 101 -209 130 -270
29 -60 81 -168 115 -240 34 -71 66 -140 70 -151 8 -21 7 -22 -103 -22 -62 0
-220 -1 -352 -2 -132 -1 -250 -1 -262 -1 -23 1 -26 7 -310 551 -36 69 -78 148
-93 175 -15 28 -40 74 -55 103 l-29 53 -40 -44 c-35 -37 -190 -206 -221 -241
-83 -93 -203 -225 -215 -237 -8 -9 -49 -53 -90 -99 -41 -46 -82 -90 -91 -99
-8 -9 -60 -65 -114 -126 -55 -60 -118 -130 -140 -155 -23 -25 -72 -79 -110
-120 -37 -41 -87 -96 -111 -121 -31 -32 -40 -49 -33 -56 8 -8 58 20 172 96 89
59 230 152 312 206 83 54 241 159 353 233 116 77 207 131 212 126 10 -11 77
-131 157 -282 31 -59 59 -111 63 -117 4 -5 31 -55 60 -110 29 -55 60 -107 70
-115 13 -12 39 -15 116 -14 54 1 407 5 784 8 376 4 686 9 688 11 3 2 -2 19
-11 37 -8 18 -34 76 -57 128 -23 52 -55 123 -71 158 -16 35 -29 65 -29 67 0 2
-15 36 -34 77 -18 40 -43 93 -54 118 -100 223 -171 382 -237 530 -43 96 -93
207 -110 245 -18 39 -42 90 -53 115 -11 25 -34 76 -51 114 -17 38 -31 73 -31
77 0 8 119 160 673 854 162 203 164 206 258 325 46 58 89 112 96 120 7 8 37
47 68 85 31 39 64 79 73 90 10 11 48 61 86 110 39 50 78 99 88 110 18 20 131
163 178 224 14 18 30 38 36 44 5 7 71 89 145 182 73 94 142 179 151 190 9 11
76 94 148 185 72 91 140 176 152 190 48 60 128 167 128 173 0 4 -6 7 -12 7 -7
0 -636 -625 -1398 -1388z"/>
<path d="M4747 5281 c-32 -20 -113 -72 -180 -116 -67 -43 -171 -111 -232 -150
-60 -40 -144 -94 -185 -121 -41 -27 -79 -51 -85 -54 -5 -3 -41 -26 -80 -51
-167 -110 -218 -140 -225 -132 -4 4 -28 46 -52 93 -65 122 -144 272 -197 370
-26 47 -57 106 -71 132 l-24 47 -793 0 c-436 0 -794 -3 -796 -7 -2 -4 53 -137
124 -297 70 -159 136 -310 147 -335 63 -143 313 -714 359 -820 30 -69 63 -144
74 -167 25 -55 24 -59 -8 -97 -39 -45 -52 -61 -502 -616 -221 -272 -410 -504
-419 -515 -10 -11 -64 -78 -122 -150 -58 -71 -112 -139 -121 -150 -154 -188
-222 -272 -313 -385 -60 -74 -112 -137 -115 -140 -4 -3 -31 -36 -61 -75 -30
-38 -57 -72 -60 -75 -7 -7 -56 -67 -329 -404 -299 -368 -308 -404 -34 -133
103 102 249 246 325 319 75 73 329 322 565 554 235 232 478 469 538 529 61 59
290 284 510 500 220 216 466 458 548 537 81 79 147 146 147 150 0 3 -27 62
-59 131 -33 68 -92 194 -132 278 -127 273 -146 312 -203 432 -31 65 -56 120
-56 122 0 1 -38 83 -85 181 -47 99 -92 193 -100 209 l-14 30 371 3 c205 1 375
-1 379 -5 6 -8 61 -112 267 -513 135 -264 176 -343 185 -357 5 -7 25 8 60 45
51 56 143 154 182 196 24 26 256 276 270 292 6 6 60 64 121 130 61 65 123 133
138 149 54 59 368 396 403 432 15 16 18 25 10 31 -8 6 -32 -3 -70 -27z"/>
</g>
</svg>
